<?xml version="1.0" encoding="UTF-8" standalone="no"?>
<!-- Created with Inkscape (http://www.inkscape.org/) -->

<svg
   xmlns:dc="http://purl.org/dc/elements/1.1/"
   xmlns:cc="http://creativecommons.org/ns#"
   xmlns:rdf="http://www.w3.org/1999/02/22-rdf-syntax-ns#"
   xmlns:svg="http://www.w3.org/2000/svg"
   xmlns="http://www.w3.org/2000/svg"
   xmlns:sodipodi="http://sodipodi.sourceforge.net/DTD/sodipodi-0.dtd"
   xmlns:inkscape="http://www.inkscape.org/namespaces/inkscape"
   width="20mm"
   height="20mm"
   viewBox="0 0 20 20"
   version="1.1"
   id="svg8"
   inkscape:version="0.92.0 r15299"
   sodipodi:docname="icon.svg">
  <defs
     id="defs2" />
  <sodipodi:namedview
     id="base"
     pagecolor="#ffffff"
     bordercolor="#666666"
     borderopacity="1.0"
     inkscape:pageopacity="0.0"
     inkscape:pageshadow="2"
     inkscape:zoom="7.9195959"
     inkscape:cx="29.621929"
     inkscape:cy="32.484527"
     inkscape:document-units="mm"
     inkscape:current-layer="g4985"
     showgrid="false"
     showguides="true"
     inkscape:guide-bbox="true"
     inkscape:window-width="1920"
     inkscape:window-height="1017"
     inkscape:window-x="1912"
     inkscape:window-y="-8"
     inkscape:window-maximized="1" />
  <metadata
     id="metadata5">
    <rdf:RDF>
      <cc:Work
         rdf:about="">
        <dc:format>image/svg+xml</dc:format>
        <dc:type
           rdf:resource="http://purl.org/dc/dcmitype/StillImage" />
        <dc:title />
      </cc:Work>
    </rdf:RDF>
  </metadata>
  <g
     inkscape:groupmode="layer"
     id="layer2"
     inkscape:label="Layer 1"
     transform="translate(0,-277)"
     style="display:inline" />
  <g
     inkscape:label="Ebene 1"
     inkscape:groupmode="layer"
     id="layer1"
     transform="translate(0,-277)"
     style="display:inline">
    <g
       id="g4599"
       transform="matrix(0.1028327,0,0,0.1028327,-0.63490684,276.80494)" />
    <g
       id="g4985"
       transform="matrix(2.4674802,0,0,2.4674802,-15.15902,-422.47625)">
      <g
         transform="matrix(1.7758268,0,0,1.7758268,-7.1727988,-221.36277)"
         id="g4530">
        <g
           id="g4972">
          <path
             style="fill:#fefefe;stroke-width:0.28546375"
             d="m 7.5050373,286.5765 v -2.28371 h 2.28371 2.2837097 v 2.28371 2.28371 h -2.2837097 -2.28371 z m 1.9982462,1.14186 c 0,-0.76124 -0.095154,-0.8564 -0.8563912,-0.8564 -0.7612367,0 -0.8563913,0.0952 -0.8563913,0.8564 0,0.76123 0.095155,0.85639 0.8563913,0.85639 0.7612367,0 0.8563912,-0.0952 0.8563912,-0.85639 z m 2.2837105,0 c 0,-0.76124 -0.09516,-0.8564 -0.856392,-0.8564 -0.761236,0 -0.856391,0.0952 -0.856391,0.8564 0,0.76123 0.09516,0.85639 0.856391,0.85639 0.761237,0 0.856392,-0.0952 0.856392,-0.85639 z m -3.996493,-2.28371 c 0,0.76123 0.095155,0.85639 0.8563913,0.85639 2.4676377,-0.42232 -0.8433836,-3.05459 -0.8563913,-0.85639 z m 3.996493,0 c 0,-0.76124 -0.09516,-0.8564 -0.856392,-0.8564 -0.761236,0 -0.856391,0.0952 -0.856391,0.8564 0,0.76123 0.09516,0.85639 0.856391,0.85639 0.761237,0 0.856392,-0.0952 0.856392,-0.85639 z"
             id="path4540"
             inkscape:connector-curvature="0"
             sodipodi:nodetypes="cccccccccsssssssssscccssscs" />
        </g>
      </g>
      <rect
         y="284.07254"
         x="10.624646"
         height="2.9692655"
         width="2.9778748"
         id="rect4881"
         style="display:inline;fill:#31a710;fill-opacity:1;stroke:none;stroke-width:50.99069977;stroke-miterlimit:4;stroke-dasharray:none;stroke-opacity:1;paint-order:markers fill stroke" />
      <rect
         y="284.08789"
         x="6.8016281"
         height="2.9692655"
         width="2.9778748"
         id="rect4881-9"
         style="display:inline;fill:#f90000;fill-opacity:1;stroke:none;stroke-width:50.99069977;stroke-miterlimit:4;stroke-dasharray:none;stroke-opacity:1;paint-order:markers fill stroke" />
      <rect
         y="287.90668"
         x="6.8240914"
         height="2.9692655"
         width="2.9778748"
         id="rect4881-5"
         style="display:inline;fill:#30a4d3;fill-opacity:1;stroke:none;stroke-width:50.99069977;stroke-miterlimit:4;stroke-dasharray:none;stroke-opacity:1;paint-order:markers fill stroke" />
      <rect
         y="287.90668"
         x="10.63162"
         height="2.9692655"
         width="2.9778748"
         id="rect4881-7"
         style="display:inline;fill:#fecf00;fill-opacity:1;stroke:none;stroke-width:50.99069977;stroke-miterlimit:4;stroke-dasharray:none;stroke-opacity:1;paint-order:markers fill stroke" />
    </g>
  </g>
  <g
     inkscape:groupmode="layer"
     id="layer3"
     inkscape:label="Ebene 2"
     style="display:inline" />
</svg>
